<svg width="1000" height="480" xmlns="http://www.w3.org/2000/svg" xmlns:xlink="http://www.w3.org/1999/xlink" overflow="hidden"><g><rect x="0" y="0" width="1280" height="720" fill="#FFFFFF"/><path d="M0 0 0.000104987 430.203" stroke="#7F7F7F" stroke-width="0.933333" stroke-miterlimit="8" stroke-dasharray="7.46667 2.8 0.933333 2.8" fill="none" fill-rule="evenodd" transform="matrix(-1 0 0 1 367.5 41.5001)"/><path d="M0 0 0.000104987 430.203" stroke="#7F7F7F" stroke-width="0.933333" stroke-miterlimit="8" stroke-dasharray="7.46667 2.8 0.933333 2.8" fill="none" fill-rule="evenodd" transform="matrix(-1 0 0 1 739.5 41.5001)"/><rect x="67.5001" y="57.5001" width="183" height="67" stroke="#156082" stroke-width="1.33333" stroke-miterlimit="8" fill="#FFFFFF"/><rect x="67.5001" y="45.5001" width="183" height="13" stroke="#156082" stroke-width="1.33333" stroke-miterlimit="8" fill="#FFFFFF"/><text font-family="Yu Gothic,Yu Gothic_MSFontService,sans-serif" font-weight="400" font-size="24" transform="translate(85.442 98)">MainWindow</text><rect x="158.5" y="382.5" width="123" height="55" stroke="#156082" stroke-width="1.33333" stroke-miterlimit="8" fill="#FFFFFF"/><text font-family="Yu Gothic,Yu Gothic_MSFontService,sans-serif" font-weight="400" font-size="24" transform="translate(195.334 417)">通知</text><rect x="174.5" y="210.5" width="113" height="51" stroke="#156082" stroke-width="1.33333" stroke-miterlimit="8" fill="#FFFFFF"/><rect x="174.5" y="199.5" width="113" height="12" stroke="#156082" stroke-width="1.33333" stroke-miterlimit="8" fill="#FFFFFF"/><rect x="168.5" y="216.5" width="113" height="51" stroke="#156082" stroke-width="1.33333" stroke-miterlimit="8" fill="#FFFFFF"/><rect x="168.5" y="204.5" width="113" height="13" stroke="#156082" stroke-width="1.33333" stroke-miterlimit="8" fill="#FFFFFF"/><rect x="162.5" y="221.5" width="113" height="52" stroke="#156082" stroke-width="1.33333" stroke-miterlimit="8" stroke-opacity="0.988235" fill="#FFFFFF"/><rect x="162.5" y="210.5" width="113" height="12" stroke="#156082" stroke-width="1.33333" stroke-miterlimit="8" stroke-opacity="0.988235" fill="#FFFFFF"/><text font-family="Yu Gothic,Yu Gothic_MSFontService,sans-serif" font-weight="400" font-size="24" transform="translate(184.801 255)">View</text><text font-family="Yu Gothic,Yu Gothic_MSFontService,sans-serif" font-weight="400" font-size="24" transform="translate(238.635 255)">s</text><path d="M176 148 176 173.246 172 173.246 172 148ZM168 150 174 138 180 150ZM180 171.246 174 183.246 168 171.246Z" fill="#61CBF4"/><path d="M485.5 202.167C485.5 196.828 489.828 192.5 495.167 192.5L613.833 192.5C619.172 192.5 623.5 196.828 623.5 202.167L623.5 240.833C623.5 246.172 619.172 250.5 613.833 250.5L495.167 250.5C489.828 250.5 485.5 246.172 485.5 240.833Z" stroke="#8ED973" stroke-width="1.33333" stroke-miterlimit="8" fill="#CCFF99" fill-rule="evenodd"/><path d="M480.5 207.167C480.5 201.828 484.828 197.5 490.167 197.5L608.833 197.5C614.172 197.5 618.5 201.828 618.5 207.167L618.5 245.833C618.5 251.172 614.172 255.5 608.833 255.5L490.167 255.5C484.828 255.5 480.5 251.172 480.5 245.833Z" stroke="#8ED973" stroke-width="1.33333" stroke-miterlimit="8" fill="#CCFF99" fill-rule="evenodd"/><path d="M474.5 214C474.5 208.753 478.753 204.5 484 204.5L603 204.5C608.247 204.5 612.5 208.753 612.5 214L612.5 252C612.5 257.247 608.247 261.5 603 261.5L484 261.5C478.753 261.5 474.5 257.247 474.5 252Z" stroke="#8ED973" stroke-width="1.33333" stroke-miterlimit="8" fill="#CCFF99" fill-rule="evenodd"/><text font-family="Yu Gothic,Yu Gothic_MSFontService,sans-serif" font-weight="400" font-size="24" transform="translate(501.727 240)">Model</text><text font-family="Yu Gothic,Yu Gothic_MSFontService,sans-serif" font-weight="400" font-size="24" transform="translate(570.727 240)">s</text><path d="M270.642 93.3202 448.461 197.273 446.442 200.726 268.624 96.7734ZM268.332 101.236 261 90 274.388 90.8764ZM448.753 192.81 456.085 204.046 442.697 203.17Z" fill="#61CBF4"/><path d="M9.99999-1.99999 141.978-1.9999 141.978 2.0001 9.99999 2.00001ZM12 6.00001 0 0 12-5.99999ZM139.977-5.9999 151.977 0.000104987 139.977 6.0001Z" fill="#61CBF4" transform="matrix(1 0 0 -1 304 230)"/><path d="M487.5 62.1668C487.5 56.828 491.828 52.5001 497.167 52.5001L615.833 52.5001C621.172 52.5001 625.5 56.828 625.5 62.1668L625.5 100.833C625.5 106.172 621.172 110.5 615.833 110.5L497.167 110.5C491.828 110.5 487.5 106.172 487.5 100.833Z" stroke="#FF0000" stroke-width="1.33333" stroke-miterlimit="8" fill="#FFCCCC" fill-rule="evenodd"/><path d="M482.5 67.1668C482.5 61.828 486.828 57.5001 492.167 57.5001L610.833 57.5001C616.172 57.5001 620.5 61.828 620.5 67.1668L620.5 105.833C620.5 111.172 616.172 115.5 610.833 115.5L492.167 115.5C486.828 115.5 482.5 111.172 482.5 105.833Z" stroke="#FF0000" stroke-width="1.33333" stroke-miterlimit="8" fill="#FFCCCC" fill-rule="evenodd"/><path d="M476.5 73.1668C476.5 67.828 480.828 63.5001 486.167 63.5001L604.833 63.5001C610.172 63.5001 614.5 67.828 614.5 73.1668L614.5 111.833C614.5 117.172 610.172 121.5 604.833 121.5L486.167 121.5C480.828 121.5 476.5 117.172 476.5 111.833Z" stroke="#FF0000" stroke-width="1.33333" stroke-miterlimit="8" fill="#FFCCCC" fill-rule="evenodd"/><text font-family="Yu Gothic,Yu Gothic_MSFontService,sans-serif" font-weight="400" font-size="24" transform="translate(506.828 100)">Helper</text><path d="M452.5 379.167C452.5 373.828 456.828 369.5 462.167 369.5L628.833 369.5C634.172 369.5 638.5 373.828 638.5 379.167L638.5 417.833C638.5 423.172 634.172 427.5 628.833 427.5L462.167 427.5C456.828 427.5 452.5 423.172 452.5 417.833Z" stroke="#156082" stroke-width="1.33333" stroke-miterlimit="8" fill="#C1E5F5" fill-rule="evenodd"/><path d="M447.5 385C447.5 379.753 451.753 375.5 457 375.5L624 375.5C629.247 375.5 633.5 379.753 633.5 385L633.5 423C633.5 428.247 629.247 432.5 624 432.5L457 432.5C451.753 432.5 447.5 428.247 447.5 423Z" stroke="#156082" stroke-width="1.33333" stroke-miterlimit="8" fill="#C1E5F5" fill-rule="evenodd"/><path d="M441.5 391.167C441.5 385.828 445.828 381.5 451.167 381.5L617.833 381.5C623.172 381.5 627.5 385.828 627.5 391.167L627.5 429.833C627.5 435.172 623.172 439.5 617.833 439.5L451.167 439.5C445.828 439.5 441.5 435.172 441.5 429.833Z" stroke="#156082" stroke-width="1.33333" stroke-miterlimit="8" fill="#C1E5F5" fill-rule="evenodd"/><text font-family="Yu Gothic,Yu Gothic_MSFontService,sans-serif" font-weight="400" font-size="24" transform="translate(488.214 417)">Services</text><path d="M549 288 549 341.047 545 341.047 545 288ZM541 290 547 278 553 290ZM553 339.047 547 351.047 541 339.047Z" fill="#61CBF4"/><path d="M311 408 410.42 408 410.42 412 311 412ZM313 416 301 410 313 404ZM408.42 404 420.42 410 408.42 416Z" fill="#61CBF4"/><path d="M799.5 382.333C799.5 374.693 838.004 368.5 885.5 368.5 932.997 368.5 971.5 374.693 971.5 382.333L971.5 437.667C971.5 445.307 932.997 451.5 885.5 451.5 838.004 451.5 799.5 445.307 799.5 437.667Z" fill="#FFFF00" fill-rule="evenodd"/><path d="M971.5 382.333C971.5 389.973 932.997 396.167 885.5 396.167 838.004 396.167 799.5 389.973 799.5 382.333" stroke="#CC9900" stroke-width="1.33333" stroke-miterlimit="8" fill="none" fill-rule="evenodd"/><path d="M799.5 382.333C799.5 374.693 838.004 368.5 885.5 368.5 932.997 368.5 971.5 374.693 971.5 382.333L971.5 437.667C971.5 445.307 932.997 451.5 885.5 451.5 838.004 451.5 799.5 445.307 799.5 437.667Z" stroke="#CC9900" stroke-width="1.33333" stroke-miterlimit="8" fill="none" fill-rule="evenodd"/><path d="M669 404 768.42 404 768.42 408 669 408ZM671 412 659 406 671 400ZM766.42 400 778.42 406 766.42 412Z" fill="#61CBF4"/><text font-family="Yu Gothic,Yu Gothic_MSFontService,sans-serif" font-weight="400" font-size="24" transform="translate(831.628 428)">Databas</text><text font-family="Yu Gothic,Yu Gothic_MSFontService,sans-serif" font-weight="400" font-size="24" transform="translate(924.128 428)">e</text></g></svg>