<svg width="1280" height="400" xmlns="http://www.w3.org/2000/svg" xmlns:xlink="http://www.w3.org/1999/xlink" overflow="hidden"><g><rect x="0" y="0" width="1280" height="720" fill="#FFFFFF"/><path d="M366.5 45.5001 366.5 399.514" stroke="#7F7F7F" stroke-width="0.933333" stroke-miterlimit="8" stroke-dasharray="7.46667 2.8 0.933333 2.8" fill="none" fill-rule="evenodd"/><rect x="67.5001" y="57.5001" width="183" height="67" stroke="#156082" stroke-width="1.33333" stroke-miterlimit="8" fill="#FFFFFF"/><rect x="67.5001" y="45.5001" width="183" height="13" stroke="#156082" stroke-width="1.33333" stroke-miterlimit="8" fill="#FFFFFF"/><text font-family="Yu Gothic,Yu Gothic_MSFontService,sans-serif" font-weight="400" font-size="24" transform="translate(85.442 98)">MainWindow</text><path d="M539 134 539 163.135 535 163.135 535 134ZM531 136 537 124 543 136Z" fill="#61CBF4"/><path d="M409.5 295.167C409.5 289.828 413.828 285.5 419.167 285.5L610.833 285.5C616.172 285.5 620.5 289.828 620.5 295.167L620.5 333.833C620.5 339.172 616.172 343.5 610.833 343.5L419.167 343.5C413.828 343.5 409.5 339.172 409.5 333.833Z" stroke="#8ED973" stroke-width="1.33333" stroke-miterlimit="8" fill="#CCFF99" fill-rule="evenodd"/><text font-family="Yu Gothic,Yu Gothic_MSFontService,sans-serif" font-weight="400" font-size="24" transform="translate(432.046 321)">ListPageMode</text><text font-family="Yu Gothic,Yu Gothic_MSFontService,sans-serif" font-weight="400" font-size="24" transform="translate(591.712 321)">l</text><path d="M343 312 388.611 312 388.611 316 343 316ZM345 320 333 314 345 308ZM386.611 308 398.611 314 386.611 320Z" fill="#61CBF4"/><path d="M723.5 295.167C723.5 289.828 727.828 285.5 733.167 285.5L935.833 285.5C941.172 285.5 945.5 289.828 945.5 295.167L945.5 333.833C945.5 339.172 941.172 343.5 935.833 343.5L733.167 343.5C727.828 343.5 723.5 339.172 723.5 333.833Z" stroke="#156082" stroke-width="1.33333" stroke-miterlimit="8" fill="#C1E5F5" fill-rule="evenodd"/><path d="M482.5 191.167C482.5 185.828 486.828 181.5 492.167 181.5L764.833 181.5C770.172 181.5 774.5 185.828 774.5 191.167L774.5 229.833C774.5 235.172 770.172 239.5 764.833 239.5L492.167 239.5C486.828 239.5 482.5 235.172 482.5 229.833Z" stroke="#156082" stroke-width="1.33333" stroke-miterlimit="8" fill="#C1E5F5" fill-rule="evenodd"/><text font-family="Yu Gothic,Yu Gothic_MSFontService,sans-serif" font-weight="400" font-size="24" transform="translate(741.892 321)">DatabaseService</text><path d="M1057.5 286.5C1057.5 278.768 1096 272.5 1143.5 272.5 1191 272.5 1229.5 278.768 1229.5 286.5L1229.5 342.5C1229.5 350.232 1191 356.5 1143.5 356.5 1096 356.5 1057.5 350.232 1057.5 342.5Z" fill="#FFFF00" fill-rule="evenodd"/><path d="M1229.5 286.5C1229.5 294.232 1191 300.5 1143.5 300.5 1096 300.5 1057.5 294.232 1057.5 286.5" stroke="#CC9900" stroke-width="1.33333" stroke-miterlimit="8" fill="none" fill-rule="evenodd"/><path d="M1057.5 286.5C1057.5 278.768 1096 272.5 1143.5 272.5 1191 272.5 1229.5 278.768 1229.5 286.5L1229.5 342.5C1229.5 350.232 1191 356.5 1143.5 356.5 1096 356.5 1057.5 350.232 1057.5 342.5Z" stroke="#CC9900" stroke-width="1.33333" stroke-miterlimit="8" fill="none" fill-rule="evenodd"/><text font-family="Yu Gothic,Yu Gothic_MSFontService,sans-serif" font-weight="400" font-size="24" transform="translate(1089.42 330)">Database</text><rect x="160.5" y="286.5" width="162" height="67" stroke="#156082" stroke-width="1.33333" stroke-miterlimit="8" fill="#FFFFFF"/><rect x="160.5" y="275.5" width="162" height="12" stroke="#156082" stroke-width="1.33333" stroke-miterlimit="8" fill="#FFFFFF"/><text font-family="Yu Gothic,Yu Gothic_MSFontService,sans-serif" font-weight="400" font-size="24" transform="translate(191.278 327)">ListPag</text><text font-family="Yu Gothic,Yu Gothic_MSFontService,sans-serif" font-weight="400" font-size="24" transform="translate(274.945 327)">e</text><text font-family="Yu Gothic,Yu Gothic_MSFontService,sans-serif" font-weight="400" font-size="24" transform="translate(510.654 218)">SearchHistoryService</text><path d="M639 312 708.554 312 708.554 316 639 316ZM641 320 629 314 641 308Z" fill="#61CBF4"/><path d="M1000.5 45.5001 1000.5 390.565" stroke="#7F7F7F" stroke-width="0.933333" stroke-miterlimit="8" stroke-dasharray="7.46667 2.8 0.933333 2.8" fill="none" fill-rule="evenodd"/><path d="M969 312 1040.84 312 1040.84 316 969 316ZM971 320 959 314 971 308Z" fill="#61CBF4"/><path d="M409.5 67.1669C409.5 61.8281 413.828 57.5001 419.167 57.5001L661.833 57.5001C667.172 57.5001 671.5 61.8281 671.5 67.1669L671.5 105.833C671.5 111.172 667.172 115.5 661.833 115.5L419.167 115.5C413.828 115.5 409.5 111.172 409.5 105.833Z" stroke="#8ED973" stroke-width="1.33333" stroke-miterlimit="8" fill="#CCFF99" fill-rule="evenodd"/><text font-family="Yu Gothic,Yu Gothic_MSFontService,sans-serif" font-weight="400" font-size="24" transform="translate(432.046 93)">MainWindowModel</text><path d="M278 83 381.61 83.0001 381.61 87.0001 278 87ZM280 91 268 85 280 79ZM379.61 79.0001 391.61 85.0001 379.61 91.0001Z" fill="#61CBF4"/><path d="M221.32 253.247 151.295 139.045 154.705 136.955 224.73 251.156ZM227.095 247.36 228.252 260.727 216.865 253.633Z" fill="#61CBF4"/></g></svg>